<svg width="125" height="47" viewBox="0 0 235 57" fill="none" xmlns="http://www.w3.org/2000/svg">
<path d="M2.45 44V18.8H13.09C13.335 18.8 13.6617 18.8117 14.07 18.835C14.49 18.8467 14.8633 18.8817 15.19 18.94C16.695 19.1733 17.9258 19.6692 18.8825 20.4275C19.8508 21.1858 20.5625 22.1425 21.0175 23.2975C21.4725 24.4408 21.7 25.7183 21.7 27.13C21.7 29.2417 21.175 31.05 20.125 32.555C19.075 34.0483 17.43 34.97 15.19 35.32L13.09 35.46H7.21V44H2.45ZM16.66 44L11.69 33.745L16.59 32.8L22.05 44H16.66ZM7.21 31.015H12.88C13.125 31.015 13.3933 31.0033 13.685 30.98C13.9767 30.9567 14.245 30.91 14.49 30.84C15.1317 30.665 15.6275 30.3733 15.9775 29.965C16.3275 29.545 16.5667 29.0842 16.695 28.5825C16.835 28.0692 16.905 27.585 16.905 27.13C16.905 26.675 16.835 26.1967 16.695 25.695C16.5667 25.1817 16.3275 24.7208 15.9775 24.3125C15.6275 23.8925 15.1317 23.595 14.49 23.42C14.245 23.35 13.9767 23.3033 13.685 23.28C13.3933 23.2567 13.125 23.245 12.88 23.245H7.21V31.015ZM34.6823 44.525C32.7456 44.525 31.0364 44.1108 29.5548 43.2825C28.0848 42.4425 26.9298 41.2933 26.0898 39.835C25.2614 38.365 24.8473 36.685 24.8473 34.795C24.8473 32.73 25.2556 30.9333 26.0723 29.405C26.8889 27.8767 28.0148 26.6925 29.4498 25.8525C30.8848 25.0008 32.5356 24.575 34.4023 24.575C36.3856 24.575 38.0714 25.0417 39.4598 25.975C40.8481 26.9083 41.8748 28.2208 42.5398 29.9125C43.2048 31.6042 43.4381 33.5933 43.2398 35.88H38.5323V34.13C38.5323 32.205 38.2231 30.8225 37.6048 29.9825C36.9981 29.1308 36.0006 28.705 34.6123 28.705C32.9906 28.705 31.7948 29.2008 31.0248 30.1925C30.2664 31.1725 29.8873 32.625 29.8873 34.55C29.8873 36.3117 30.2664 37.6767 31.0248 38.645C31.7948 39.6017 32.9206 40.08 34.4023 40.08C35.3356 40.08 36.1348 39.8758 36.7998 39.4675C37.4648 39.0592 37.9723 38.47 38.3223 37.7L43.0823 39.065C42.3706 40.7917 41.2448 42.1333 39.7048 43.09C38.1764 44.0467 36.5023 44.525 34.6823 44.525ZM28.4173 35.88V32.345H40.9473V35.88H28.4173ZM55.9762 44.525C54.0395 44.525 52.3304 44.1108 50.8487 43.2825C49.3787 42.4425 48.2237 41.2933 47.3837 39.835C46.5554 38.365 46.1412 36.685 46.1412 34.795C46.1412 32.73 46.5495 30.9333 47.3662 29.405C48.1829 27.8767 49.3087 26.6925 50.7437 25.8525C52.1787 25.0008 53.8295 24.575 55.6962 24.575C57.6795 24.575 59.3654 25.0417 60.7537 25.975C62.142 26.9083 63.1687 28.2208 63.8337 29.9125C64.4987 31.6042 64.732 33.5933 64.5337 35.88H59.8262V34.13C59.8262 32.205 59.517 30.8225 58.8987 29.9825C58.292 29.1308 57.2945 28.705 55.9062 28.705C54.2845 28.705 53.0887 29.2008 52.3187 30.1925C51.5604 31.1725 51.1812 32.625 51.1812 34.55C51.1812 36.3117 51.5604 37.6767 52.3187 38.645C53.0887 39.6017 54.2145 40.08 55.6962 40.08C56.6295 40.08 57.4287 39.8758 58.0937 39.4675C58.7587 39.0592 59.2662 38.47 59.6162 37.7L64.3762 39.065C63.6645 40.7917 62.5387 42.1333 60.9987 43.09C59.4704 44.0467 57.7962 44.525 55.9762 44.525ZM49.7112 35.88V32.345H62.2412V35.88H49.7112ZM76.1502 44.525C74.4118 44.525 72.8893 44.0875 71.5827 43.2125C70.276 42.3375 69.2552 41.1475 68.5202 39.6425C67.7968 38.1375 67.4352 36.44 67.4352 34.55C67.4352 32.625 67.8027 30.9158 68.5377 29.4225C69.2843 27.9175 70.3285 26.7333 71.6702 25.87C73.0118 25.0067 74.5868 24.575 76.3952 24.575C78.1918 24.575 79.7027 25.0125 80.9277 25.8875C82.1527 26.7625 83.0802 27.9525 83.7102 29.4575C84.3402 30.9625 84.6552 32.66 84.6552 34.55C84.6552 36.44 84.3343 38.1375 83.6927 39.6425C83.0627 41.1475 82.1177 42.3375 80.8577 43.2125C79.5977 44.0875 78.0285 44.525 76.1502 44.525ZM76.9202 40.29C77.9818 40.29 78.8277 40.0508 79.4577 39.5725C80.0993 39.0942 80.5602 38.4233 80.8402 37.56C81.1202 36.6967 81.2602 35.6933 81.2602 34.55C81.2602 33.4067 81.1202 32.4033 80.8402 31.54C80.5602 30.6767 80.111 30.0058 79.4927 29.5275C78.886 29.0492 78.0868 28.81 77.0952 28.81C76.0335 28.81 75.1585 29.0725 74.4702 29.5975C73.7935 30.1108 73.2918 30.805 72.9652 31.68C72.6385 32.5433 72.4752 33.5 72.4752 34.55C72.4752 35.6117 72.6327 36.58 72.9477 37.455C73.2627 38.3183 73.7468 39.0067 74.4002 39.52C75.0535 40.0333 75.8935 40.29 76.9202 40.29ZM81.2602 44V31.05H80.6652V18.8H85.4602V44H81.2602Z" fill="#242424"/>
<path d="M119.977 35.0225C119.452 36.0725 118.799 37.1458 118.017 38.2425C117.247 39.3275 116.331 40.3367 115.269 41.27C114.219 42.1917 113.006 42.9383 111.629 43.51C110.264 44.07 108.719 44.35 106.992 44.35C104.974 44.35 103.171 43.9417 101.584 43.125C100.009 42.3083 98.767 41.0833 97.857 39.45C96.947 37.8167 96.492 35.775 96.492 33.325C96.492 31.8433 96.7312 30.35 97.2095 28.845C97.6995 27.34 98.3995 25.905 99.3095 24.54C100.219 23.1633 101.304 21.9442 102.564 20.8825C103.836 19.8092 105.254 18.9633 106.817 18.345C108.392 17.715 110.084 17.4 111.892 17.4C113.864 17.4 115.485 17.6858 116.757 18.2575C118.04 18.8175 119.055 19.5467 119.802 20.445C119.989 20.655 120.099 20.76 120.134 20.76C120.169 20.76 120.263 20.6317 120.414 20.375L121.779 18.03C121.838 17.925 121.914 17.855 122.007 17.82C122.112 17.7733 122.252 17.75 122.427 17.75H123.477C123.652 17.75 123.757 17.7733 123.792 17.82C123.839 17.855 123.844 17.9542 123.809 18.1175L122.077 26.0975C122.03 26.3425 121.972 26.5 121.902 26.57C121.832 26.64 121.645 26.675 121.342 26.675H120.642C120.374 26.675 120.216 26.64 120.169 26.57C120.123 26.4883 120.105 26.3367 120.117 26.115C120.222 24.8317 119.936 23.7 119.259 22.72C118.594 21.7283 117.644 20.9525 116.407 20.3925C115.182 19.8208 113.77 19.535 112.172 19.535C110.329 19.535 108.684 19.9608 107.237 20.8125C105.79 21.6525 104.565 22.7608 103.562 24.1375C102.57 25.5025 101.812 26.9958 101.287 28.6175C100.774 30.2275 100.517 31.7967 100.517 33.325C100.517 35.215 100.768 36.8192 101.269 38.1375C101.771 39.4442 102.535 40.4417 103.562 41.13C104.589 41.8067 105.884 42.145 107.447 42.145C108.625 42.145 109.734 41.9175 110.772 41.4625C111.81 41.0075 112.761 40.4183 113.624 39.695C114.499 38.96 115.275 38.1725 115.952 37.3325C116.629 36.4808 117.194 35.6583 117.649 34.865C117.731 34.725 117.819 34.6083 117.912 34.515C118.017 34.4217 118.18 34.375 118.402 34.375H119.312C119.72 34.375 119.965 34.4217 120.047 34.515C120.129 34.6083 120.105 34.7775 119.977 35.0225ZM123.508 37.7C123.508 36.0317 123.782 34.4625 124.33 32.9925C124.89 31.5108 125.654 30.21 126.623 29.09C127.591 27.9583 128.705 27.0717 129.965 26.43C131.225 25.7767 132.561 25.45 133.973 25.45C135.384 25.45 136.609 25.7358 137.648 26.3075C138.698 26.8792 139.508 27.6667 140.08 28.67C140.652 29.6733 140.938 30.8167 140.938 32.1C140.938 33.7567 140.658 35.3258 140.098 36.8075C139.549 38.2892 138.791 39.5958 137.823 40.7275C136.854 41.8475 135.74 42.7342 134.48 43.3875C133.22 44.0292 131.884 44.35 130.473 44.35C129.061 44.35 127.83 44.0642 126.78 43.4925C125.742 42.9208 124.937 42.1333 124.365 41.13C123.793 40.1267 123.508 38.9833 123.508 37.7ZM127.183 37.7C127.183 38.5633 127.288 39.3858 127.498 40.1675C127.719 40.9375 128.069 41.5675 128.548 42.0575C129.026 42.5358 129.668 42.775 130.473 42.775C131.429 42.775 132.316 42.4775 133.133 41.8825C133.961 41.2875 134.684 40.4825 135.303 39.4675C135.921 38.4408 136.399 37.2917 136.738 36.02C137.088 34.7483 137.263 33.4417 137.263 32.1C137.263 31.2367 137.158 30.42 136.948 29.65C136.738 28.8683 136.388 28.2383 135.898 27.76C135.419 27.27 134.778 27.025 133.973 27.025C133.016 27.025 132.123 27.3225 131.295 27.9175C130.478 28.5125 129.761 29.3233 129.143 30.35C128.524 31.365 128.04 32.5083 127.69 33.78C127.352 35.04 127.183 36.3467 127.183 37.7ZM142.944 30.945C143.632 29.3467 144.513 28.0342 145.587 27.0075C146.66 25.9692 147.78 25.45 148.947 25.45C149.927 25.45 150.632 25.7825 151.064 26.4475C151.507 27.1008 151.583 27.9583 151.292 29.02L149.052 37.35C148.76 38.33 148.556 39.205 148.439 39.975C148.322 40.745 148.375 41.3517 148.597 41.795C148.83 42.2383 149.32 42.46 150.067 42.46C150.825 42.46 151.624 42.1392 152.464 41.4975C153.316 40.8558 154.138 40.0158 154.932 38.9775C155.725 37.9275 156.425 36.79 157.032 35.565C157.65 34.34 158.093 33.1442 158.362 31.9775L159.709 26.0625C159.732 25.9575 159.773 25.8875 159.832 25.8525C159.902 25.8175 160.007 25.8 160.147 25.8H162.614C162.789 25.8 162.888 25.8175 162.912 25.8525C162.947 25.8758 162.947 25.9575 162.912 26.0975L159.377 40.885C159.307 41.1883 159.295 41.48 159.342 41.76C159.388 42.04 159.587 42.18 159.937 42.18C160.485 42.18 161.086 41.8183 161.739 41.095C162.392 40.36 162.935 39.485 163.367 38.47C163.483 38.2017 163.559 38.0383 163.594 37.98C163.641 37.91 163.81 37.9217 164.102 38.015L164.469 38.1375C164.784 38.2425 164.912 38.3592 164.854 38.4875C164.807 38.6158 164.726 38.8142 164.609 39.0825C163.921 40.6342 163.052 41.9 162.002 42.88C160.952 43.86 159.855 44.35 158.712 44.35C157.755 44.35 157.049 44.0525 156.594 43.4575C156.139 42.8625 156.04 42.0517 156.297 41.025L156.787 39.1C156.857 38.8317 156.862 38.6858 156.804 38.6625C156.746 38.6392 156.67 38.7092 156.577 38.8725C155.667 40.5642 154.599 41.8942 153.374 42.8625C152.161 43.8308 150.907 44.315 149.612 44.315C148.83 44.315 148.142 44.2042 147.547 43.9825C146.952 43.7492 146.479 43.3758 146.129 42.8625C145.779 42.3492 145.575 41.6725 145.517 40.8325C145.47 39.9925 145.598 38.96 145.902 37.735L148.212 29.16C148.305 28.8217 148.346 28.4833 148.334 28.145C148.334 27.795 148.13 27.62 147.722 27.62C147.185 27.62 146.59 27.9817 145.937 28.705C145.283 29.4283 144.735 30.2975 144.292 31.3125C144.21 31.5225 144.134 31.68 144.064 31.785C143.994 31.8783 143.837 31.8842 143.592 31.8025L143.102 31.645C142.868 31.5633 142.763 31.4817 142.787 31.4C142.81 31.3067 142.862 31.155 142.944 30.945ZM167.148 25.8H171.733C172.141 25.8 172.409 25.8408 172.538 25.9225C172.678 26.0042 172.707 26.2083 172.625 26.535L172.065 28.985C171.949 29.475 171.908 29.7375 171.943 29.7725C171.989 29.8075 172.188 29.5567 172.538 29.02C173.214 27.9933 173.979 27.1417 174.83 26.465C175.694 25.7883 176.639 25.45 177.665 25.45C178.704 25.45 179.538 25.7475 180.168 26.3425C180.809 26.9258 181.13 27.725 181.13 28.74C181.13 29.475 180.92 30.105 180.5 30.63C180.092 31.1433 179.579 31.4 178.96 31.4C178.564 31.4 178.202 31.33 177.875 31.19C177.56 31.0383 177.304 30.8283 177.105 30.56C176.919 30.2917 176.825 29.9767 176.825 29.615C176.825 29.1017 176.901 28.7225 177.053 28.4775C177.204 28.2208 177.356 28.0342 177.508 27.9175C177.659 27.7892 177.735 27.655 177.735 27.515C177.735 27.235 177.537 27.095 177.14 27.095C176.51 27.095 175.839 27.41 175.128 28.04C174.428 28.67 173.745 29.4808 173.08 30.4725C172.427 31.4642 171.849 32.5142 171.348 33.6225C170.858 34.7308 170.502 35.7575 170.28 36.7025L168.74 43.405C168.682 43.6733 168.618 43.8425 168.548 43.9125C168.489 43.9708 168.291 44 167.953 44H166.168C165.806 44 165.608 43.9417 165.573 43.825C165.549 43.7083 165.567 43.5217 165.625 43.265L169.055 28.5125C169.137 28.1508 169.149 27.9292 169.09 27.8475C169.032 27.7658 168.781 27.725 168.338 27.725H167.078C166.798 27.725 166.629 27.6783 166.57 27.585C166.524 27.48 166.5 27.2817 166.5 26.99V26.36C166.5 26.1033 166.553 25.9458 166.658 25.8875C166.763 25.8292 166.926 25.8 167.148 25.8ZM192.37 39.345C192.37 38.6567 192.148 38.085 191.705 37.63C191.273 37.1633 190.713 36.7608 190.025 36.4225C189.348 36.0725 188.625 35.7342 187.855 35.4075C187.085 35.0808 186.355 34.7192 185.667 34.3225C184.99 33.9142 184.43 33.4242 183.987 32.8525C183.555 32.2692 183.34 31.5517 183.34 30.7C183.34 29.7433 183.585 28.9325 184.075 28.2675C184.576 27.5908 185.212 27.0425 185.982 26.6225C186.752 26.1908 187.563 25.8758 188.415 25.6775C189.278 25.4792 190.071 25.38 190.795 25.38C191.938 25.38 192.941 25.5492 193.805 25.8875C194.68 26.2258 195.356 26.71 195.835 27.34C196.325 27.97 196.57 28.7283 196.57 29.615C196.57 30.315 196.395 30.8633 196.045 31.26C195.695 31.6567 195.24 31.855 194.68 31.855C194.12 31.855 193.67 31.715 193.332 31.435C192.994 31.1433 192.825 30.7817 192.825 30.35C192.825 29.895 192.912 29.5742 193.087 29.3875C193.262 29.1892 193.437 29.0317 193.612 28.915C193.787 28.7983 193.875 28.6233 193.875 28.39C193.875 27.8417 193.542 27.4683 192.877 27.27C192.224 27.06 191.53 26.955 190.795 26.955C190.06 26.955 189.354 27.0542 188.677 27.2525C188 27.4508 187.44 27.76 186.997 28.18C186.565 28.6 186.35 29.1367 186.35 29.79C186.35 30.3733 186.565 30.8633 186.997 31.26C187.429 31.645 187.983 31.995 188.66 32.31C189.336 32.625 190.054 32.9517 190.812 33.29C191.57 33.6167 192.288 34.0075 192.965 34.4625C193.641 34.9175 194.195 35.4833 194.627 36.16C195.059 36.825 195.275 37.665 195.275 38.68C195.275 39.59 195.053 40.4008 194.61 41.1125C194.166 41.8242 193.56 42.425 192.79 42.915C192.02 43.405 191.133 43.7783 190.13 44.035C189.138 44.2917 188.088 44.42 186.98 44.42C185.708 44.42 184.576 44.2158 183.585 43.8075C182.605 43.3875 181.835 42.8158 181.275 42.0925C180.715 41.3575 180.435 40.5233 180.435 39.59C180.435 38.8317 180.656 38.1958 181.1 37.6825C181.543 37.1575 182.068 36.895 182.675 36.895C183.2 36.895 183.631 37.0525 183.97 37.3675C184.32 37.6825 184.495 38.12 184.495 38.68C184.495 39.1817 184.366 39.5317 184.11 39.73C183.853 39.9167 183.596 40.0625 183.34 40.1675C183.083 40.2725 182.955 40.4417 182.955 40.675C182.955 41.1183 183.153 41.5033 183.55 41.83C183.946 42.145 184.448 42.39 185.055 42.565C185.673 42.7283 186.315 42.81 186.98 42.81C188.73 42.81 190.065 42.4542 190.987 41.7425C191.909 41.0308 192.37 40.2317 192.37 39.345ZM197.985 38.05C197.985 36.3 198.306 34.6667 198.948 33.15C199.601 31.6217 200.464 30.28 201.538 29.125C202.623 27.97 203.818 27.0717 205.125 26.43C206.443 25.7767 207.762 25.45 209.08 25.45C211.04 25.45 212.481 25.7825 213.403 26.4475C214.324 27.1008 214.785 28.145 214.785 29.58C214.785 30.6767 214.511 31.6158 213.963 32.3975C213.426 33.1675 212.708 33.8092 211.81 34.3225C210.912 34.8242 209.92 35.2267 208.835 35.53C207.75 35.8333 206.665 36.0608 205.58 36.2125C204.495 36.3642 203.498 36.4692 202.588 36.5275C202.179 36.5508 201.905 36.6733 201.765 36.895C201.625 37.105 201.555 37.49 201.555 38.05C201.555 39.345 201.806 40.4358 202.308 41.3225C202.821 42.1975 203.678 42.635 204.88 42.635C205.802 42.635 206.642 42.4133 207.4 41.97C208.17 41.515 208.853 40.955 209.448 40.29C210.054 39.6133 210.568 38.9367 210.988 38.26C211.081 38.1083 211.174 38.0208 211.268 37.9975C211.373 37.9625 211.553 37.945 211.81 37.945H212.318C212.656 37.945 212.854 37.98 212.913 38.05C212.971 38.1083 212.924 38.2717 212.773 38.54C212.271 39.4967 211.618 40.4183 210.813 41.305C210.019 42.1917 209.092 42.9208 208.03 43.4925C206.968 44.0642 205.778 44.35 204.46 44.35C203.165 44.35 202.033 44.14 201.065 43.72C200.097 43.3 199.338 42.6292 198.79 41.7075C198.253 40.7858 197.985 39.5667 197.985 38.05ZM202.868 34.935C203.754 34.83 204.693 34.6667 205.685 34.445C206.677 34.2233 207.604 33.9142 208.468 33.5175C209.343 33.1208 210.054 32.6075 210.603 31.9775C211.151 31.3358 211.425 30.5367 211.425 29.58C211.425 28.5767 211.227 27.9117 210.83 27.585C210.433 27.2583 209.85 27.095 209.08 27.095C208.147 27.095 207.231 27.3867 206.333 27.97C205.446 28.5533 204.647 29.3467 203.935 30.35C203.235 31.3417 202.675 32.4733 202.255 33.745C202.103 34.2 202.051 34.5267 202.098 34.725C202.156 34.9233 202.413 34.9933 202.868 34.935ZM227.096 39.345C227.096 38.6567 226.874 38.085 226.431 37.63C225.999 37.1633 225.439 36.7608 224.751 36.4225C224.074 36.0725 223.351 35.7342 222.581 35.4075C221.811 35.0808 221.082 34.7192 220.394 34.3225C219.717 33.9142 219.157 33.4242 218.714 32.8525C218.282 32.2692 218.066 31.5517 218.066 30.7C218.066 29.7433 218.311 28.9325 218.801 28.2675C219.303 27.5908 219.939 27.0425 220.709 26.6225C221.479 26.1908 222.289 25.8758 223.141 25.6775C224.004 25.4792 224.798 25.38 225.521 25.38C226.664 25.38 227.668 25.5492 228.531 25.8875C229.406 26.2258 230.083 26.71 230.561 27.34C231.051 27.97 231.296 28.7283 231.296 29.615C231.296 30.315 231.121 30.8633 230.771 31.26C230.421 31.6567 229.966 31.855 229.406 31.855C228.846 31.855 228.397 31.715 228.059 31.435C227.72 31.1433 227.551 30.7817 227.551 30.35C227.551 29.895 227.639 29.5742 227.814 29.3875C227.989 29.1892 228.164 29.0317 228.339 28.915C228.514 28.7983 228.601 28.6233 228.601 28.39C228.601 27.8417 228.269 27.4683 227.604 27.27C226.95 27.06 226.256 26.955 225.521 26.955C224.786 26.955 224.08 27.0542 223.404 27.2525C222.727 27.4508 222.167 27.76 221.724 28.18C221.292 28.6 221.076 29.1367 221.076 29.79C221.076 30.3733 221.292 30.8633 221.724 31.26C222.155 31.645 222.709 31.995 223.386 32.31C224.063 32.625 224.78 32.9517 225.539 33.29C226.297 33.6167 227.014 34.0075 227.691 34.4625C228.368 34.9175 228.922 35.4833 229.354 36.16C229.785 36.825 230.001 37.665 230.001 38.68C230.001 39.59 229.779 40.4008 229.336 41.1125C228.893 41.8242 228.286 42.425 227.516 42.915C226.746 43.405 225.859 43.7783 224.856 44.035C223.864 44.2917 222.814 44.42 221.706 44.42C220.434 44.42 219.303 44.2158 218.311 43.8075C217.331 43.3875 216.561 42.8158 216.001 42.0925C215.441 41.3575 215.161 40.5233 215.161 39.59C215.161 38.8317 215.383 38.1958 215.826 37.6825C216.269 37.1575 216.794 36.895 217.401 36.895C217.926 36.895 218.358 37.0525 218.696 37.3675C219.046 37.6825 219.221 38.12 219.221 38.68C219.221 39.1817 219.093 39.5317 218.836 39.73C218.579 39.9167 218.323 40.0625 218.066 40.1675C217.809 40.2725 217.681 40.4417 217.681 40.675C217.681 41.1183 217.879 41.5033 218.276 41.83C218.673 42.145 219.174 42.39 219.781 42.565C220.399 42.7283 221.041 42.81 221.706 42.81C223.456 42.81 224.792 42.4542 225.714 41.7425C226.635 41.0308 227.096 40.2317 227.096 39.345Z" fill="#4A8EF2"/>
<circle cx="54.5" cy="53.5" r="3.5" fill="#242424"/>
<circle cx="68.5" cy="53.5" r="3.5" fill="#242424"/>
<circle cx="82.5" cy="53.5" r="3.5" fill="#242424"/>
</svg>
